<svg width="39" height="42" viewBox="0 0 39 42" fill="none" xmlns="http://www.w3.org/2000/svg">
<ellipse cx="19.5" cy="20.8727" rx="19.5" ry="20.8727" fill="#0E49B5"/>
<g clip-path="url(#clip0_1_2011)">
<path d="M19.7773 34.4399H18.2475C17.0103 34.4399 16.0036 33.3624 16.0036 32.0381V31.4841C15.4776 31.3042 14.9665 31.0772 14.4756 30.8052L14.1088 31.1978C13.2205 32.1498 11.7975 32.1219 10.935 31.1974L9.85383 30.0401C8.9898 29.1163 8.96495 27.5937 9.85412 26.643L10.2206 26.2507C9.96652 25.7252 9.75443 25.1782 9.58632 24.6151H9.06883C7.83161 24.6151 6.82495 23.5376 6.82495 22.2133V20.5758C6.82495 19.2514 7.83161 18.1739 9.06888 18.1739H9.58637C9.75447 17.6108 9.96657 17.0638 10.2206 16.5383L9.85388 16.1458C8.96524 15.1956 8.98976 13.6728 9.85416 12.7486L10.9355 11.5912C11.8 10.6646 13.2226 10.6415 14.1092 11.5915L14.4756 11.9838C14.9666 11.7119 15.4776 11.4848 16.0037 11.3049V10.7509C16.0037 9.42657 17.0103 8.3491 18.2476 8.3491H19.7774C21.0146 8.3491 22.0212 9.42657 22.0212 10.7509V11.3049C22.5473 11.4848 23.0583 11.7119 23.5493 11.9838L23.9161 11.5912C24.8044 10.6392 26.2273 10.6672 27.0898 11.5916L28.171 12.7489C29.0351 13.6727 29.0599 15.1953 28.1707 16.146L27.8043 16.5383C28.0583 17.0638 28.2704 17.6108 28.4385 18.1739H28.956C30.1933 18.1739 31.2 19.2514 31.2 20.5758V22.2133C31.2 23.5376 30.1933 24.6151 28.956 24.6151H28.4385C28.2704 25.1782 28.0583 25.7252 27.8043 26.2507L28.171 26.6433C29.0597 27.5935 29.0351 29.1162 28.1707 30.0405L27.0894 31.1978C26.2249 32.1245 24.8023 32.1476 23.9157 31.1975L23.5493 30.8053C23.0583 31.0772 22.5473 31.3043 22.0212 31.4842V32.0382C22.0212 33.3624 21.0146 34.4399 19.7773 34.4399V34.4399ZM14.7143 29.1998C15.3964 29.6316 16.1305 29.9578 16.8962 30.1693C17.2116 30.2564 17.4319 30.5608 17.4319 30.9094V32.0381C17.4319 32.5195 17.7978 32.9112 18.2476 32.9112H19.7774C20.2271 32.9112 20.5931 32.5195 20.5931 32.0381V30.9094C20.5931 30.5608 20.8134 30.2564 21.1287 30.1693C21.8945 29.9578 22.6286 29.6316 23.3106 29.1998C23.5913 29.0222 23.9486 29.0705 24.1791 29.3173L24.926 30.1168C25.248 30.4619 25.7651 30.4539 26.0792 30.1171L27.1612 28.9591C27.4746 28.6241 27.485 28.0704 27.1615 27.7246L26.4143 26.9248C26.1838 26.678 26.1387 26.2956 26.3046 25.9952C26.708 25.2652 27.0126 24.4794 27.2103 23.6597C27.2917 23.3222 27.5761 23.0864 27.9017 23.0864H28.9561C29.4058 23.0864 29.7718 22.6947 29.7718 22.2133V20.5758C29.7718 20.0944 29.4058 19.7027 28.9561 19.7027H27.9017C27.576 19.7027 27.2917 19.4669 27.2103 19.1294C27.0126 18.3097 26.7079 17.5239 26.3046 16.7939C26.1387 16.4936 26.1838 16.1111 26.4143 15.8643L27.1612 15.0648C27.4841 14.7196 27.4757 14.1662 27.1615 13.8304L26.0796 12.6723C25.766 12.3362 25.2488 12.3264 24.9263 12.672L24.1792 13.4718C23.9487 13.7186 23.5912 13.7669 23.3107 13.5893C22.6286 13.1575 21.8945 12.8313 21.1288 12.6198C20.8134 12.5327 20.5931 12.2283 20.5931 11.8797V10.7509C20.5931 10.2695 20.2272 9.87786 19.7774 9.87786H18.2476C17.7979 9.87786 17.4319 10.2695 17.4319 10.7509V11.8796C17.4319 12.2282 17.2116 12.5326 16.8963 12.6197C16.1305 12.8312 15.3964 13.1574 14.7144 13.5892C14.4337 13.7668 14.0764 13.7185 13.8459 13.4717L13.099 12.6722C12.777 12.3271 12.2598 12.3351 11.9457 12.6719L10.8638 13.83C10.5504 14.165 10.5399 14.7185 10.8635 15.0644L11.6107 15.8642C11.8412 16.111 11.8863 16.4935 11.7204 16.7938C11.317 17.5238 11.0124 18.3096 10.8147 19.1293C10.7333 19.4668 10.4489 19.7026 10.1233 19.7026H9.06888C8.61913 19.7027 8.25317 20.0943 8.25317 20.5758V22.2133C8.25317 22.6947 8.61913 23.0863 9.06888 23.0863H10.1232C10.4489 23.0863 10.7333 23.3222 10.8147 23.6597C11.0123 24.4793 11.317 25.2651 11.7204 25.9952C11.8863 26.2955 11.8412 26.678 11.6106 26.9247L10.8637 27.7242C10.5409 28.0694 10.5493 28.6228 10.8634 28.9587L11.9453 30.1167C12.2589 30.4529 12.7761 30.4627 13.0986 30.117L13.8458 29.3172C14.0156 29.1355 14.369 28.9812 14.7143 29.1998V29.1998Z" fill="white"/>
<path d="M19.0125 27.0713C16.0881 27.0713 13.709 24.5247 13.709 21.3945C13.709 18.2643 16.0881 15.7177 19.0125 15.7177C21.9368 15.7177 24.3159 18.2643 24.3159 21.3945C24.3159 24.5247 21.9368 27.0713 19.0125 27.0713V27.0713ZM19.0125 17.2465C16.8756 17.2465 15.1372 19.1073 15.1372 21.3945C15.1372 23.6817 16.8756 25.5425 19.0125 25.5425C21.1493 25.5425 22.8877 23.6817 22.8877 21.3945C22.8877 19.1073 21.1493 17.2465 19.0125 17.2465V17.2465Z" fill="white"/>
</g>
<defs>
<clipPath id="clip0_1_2011">
<rect width="24.375" height="26.0908" fill="white" transform="translate(6.82495 8.3491)"/>
</clipPath>
</defs>
</svg>
