<svg width="41" height="41" viewBox="0 0 41 41" fill="none" xmlns="http://www.w3.org/2000/svg">
<rect width="41" height="41" fill="#E5E5E5"/>
<g id="Setting page (Filter)" clip-path="url(#clip0_915_2)">
<rect width="1500" height="1974" transform="translate(-1211 -611)" fill="white"/>
<g id="Filters" filter="url(#filter0_d_915_2)">
<g id="Rectangle 1" filter="url(#filter1_d_915_2)">
<rect x="-973.002" y="-9" width="1023" height="59.8721" rx="5" fill="white"/>
<rect x="-972.502" y="-8.5" width="1022" height="58.8721" rx="4.5" stroke="#DDDADA"/>
</g>
<g id="Filter">
<g id="Filter Modal">
<g id="Rectangle 12" filter="url(#filter2_d_915_2)">
<rect x="-237.719" y="56" width="287.719" height="108" rx="5" fill="white"/>
<rect x="-237.219" y="56.5" width="286.719" height="107" rx="4.5" stroke="#E2E2E2"/>
</g>
</g>
</g>
<g id="Sort">
<ellipse id="Ellipse 1" cx="20.7322" cy="20.9361" rx="20.1365" ry="19.9574" fill="#0E49B5"/>
<g id="settings 1" clip-path="url(#clip1_915_2)">
<path id="Vector" d="M21.0184 33.9084H19.4387C18.1611 33.9084 17.1216 32.8781 17.1216 31.6119V31.0822C16.5784 30.9102 16.0506 30.6931 15.5436 30.433L15.1649 30.8084C14.2476 31.7187 12.7782 31.692 11.8875 30.8081L10.771 29.7015C9.87882 28.8182 9.85316 27.3624 10.7713 26.4533L11.1498 26.0783C10.8874 25.5758 10.6684 25.0528 10.4948 24.5144H9.96043C8.68283 24.5144 7.64331 23.4842 7.64331 22.2179V20.6522C7.64331 19.3859 8.68283 18.3557 9.96048 18.3557H10.4949C10.6684 17.8173 10.8875 17.2943 11.1498 16.7918L10.7711 16.4164C9.85345 15.5079 9.87877 14.052 10.7714 13.1683L11.888 12.0616C12.7807 11.1756 14.2497 11.1535 15.1653 12.0619L15.5437 12.437C16.0507 12.177 16.5784 11.9599 17.1216 11.7878V11.2582C17.1216 9.99189 18.1611 8.96167 19.4388 8.96167H21.0185C22.2961 8.96167 23.3356 9.99189 23.3356 11.2582V11.7879C23.8788 11.9599 24.4065 12.177 24.9135 12.437L25.2923 12.0616C26.2096 11.1514 27.6789 11.1781 28.5696 12.062L29.6861 13.1685C30.5783 14.0518 30.604 15.5076 29.6858 16.4167L29.3074 16.7918C29.5697 17.2943 29.7887 17.8172 29.9623 18.3557H30.4967C31.7744 18.3557 32.8139 19.3859 32.8139 20.6522V22.2179C32.8139 23.4842 31.7744 24.5144 30.4967 24.5144H29.9623C29.7887 25.0528 29.5697 25.5758 29.3074 26.0783L29.6861 26.4536C30.6037 27.3621 30.5784 28.8181 29.6858 29.7018L28.5692 30.8084C27.6765 31.6944 26.2074 31.7166 25.2919 30.8082L24.9135 30.4331C24.4065 30.6931 23.8788 30.9102 23.3356 31.0823V31.612C23.3356 32.8781 22.2961 33.9084 21.0184 33.9084ZM15.7902 28.8981C16.4945 29.3109 17.2526 29.6228 18.0433 29.8251C18.3689 29.9083 18.5964 30.1994 18.5964 30.5327V31.6119C18.5964 32.0722 18.9743 32.4466 19.4388 32.4466H21.0185C21.4829 32.4466 21.8608 32.0722 21.8608 31.6119V30.5327C21.8608 30.1994 22.0883 29.9083 22.414 29.8251C23.2047 29.6228 23.9627 29.3109 24.6671 28.8981C24.9569 28.7282 25.3258 28.7744 25.5639 29.0104L26.3352 29.7748C26.6677 30.1048 27.2017 30.0971 27.526 29.7752L28.6433 28.6679C28.9669 28.3475 28.9777 27.8182 28.6436 27.4875L27.872 26.7228C27.634 26.4869 27.5874 26.1211 27.7587 25.834C28.1753 25.1359 28.4899 24.3846 28.694 23.6009C28.778 23.2781 29.0717 23.0527 29.408 23.0527H30.4968C30.9612 23.0527 31.3391 22.6782 31.3391 22.2179V20.6522C31.3391 20.1919 30.9612 19.8174 30.4968 19.8174H29.408C29.0717 19.8174 28.778 19.5919 28.694 19.2692C28.4899 18.4855 28.1752 17.7342 27.7587 17.0362C27.5874 16.749 27.634 16.3833 27.872 16.1473L28.6433 15.3829C28.9767 15.0529 28.968 14.5237 28.6436 14.2026L27.5264 13.0953C27.2026 12.7739 26.6685 12.7645 26.3355 13.095L25.564 13.8597C25.3259 14.0957 24.9568 14.1419 24.6671 13.9721C23.9628 13.5592 23.2047 13.2473 22.414 13.0451C22.0884 12.9618 21.8608 12.6707 21.8608 12.3374V11.2582C21.8608 10.7979 21.4829 10.4234 21.0185 10.4234H19.4388C18.9744 10.4234 18.5965 10.7979 18.5965 11.2582V12.3373C18.5965 12.6706 18.369 12.9617 18.0433 13.045C17.2526 13.2472 16.4945 13.5591 15.7902 13.972C15.5004 14.1418 15.1314 14.0956 14.8934 13.8597L14.1221 13.0952C13.7896 12.7653 13.2556 12.7729 12.9312 13.0949L11.814 14.2022C11.4904 14.5225 11.4796 15.0518 11.8137 15.3825L12.5852 16.1472C12.8233 16.3832 12.8699 16.7489 12.6986 17.0361C12.282 17.7341 11.9674 18.4854 11.7633 19.2691C11.6793 19.5919 11.3856 19.8173 11.0493 19.8173H9.96048C9.49605 19.8174 9.11815 20.1919 9.11815 20.6522V22.2179C9.11815 22.6782 9.49605 23.0527 9.96048 23.0527H11.0493C11.3856 23.0527 11.6792 23.2781 11.7633 23.6008C11.9673 24.3846 12.282 25.1359 12.6985 25.8339C12.8698 26.1211 12.8232 26.4868 12.5852 26.7227L11.8139 27.4872C11.4805 27.8172 11.4892 28.3464 11.8136 28.6675L12.9308 29.7748C13.2546 30.0961 13.7887 30.1056 14.1217 29.7751L14.8933 29.0103C15.0687 28.8365 15.4336 28.689 15.7902 28.8981Z" fill="white"/>
<path id="Vector_2" d="M20.2285 26.8628C17.2087 26.8628 14.752 24.4279 14.752 21.4349C14.752 18.442 17.2087 16.0071 20.2285 16.0071C23.2483 16.0071 25.7051 18.442 25.7051 21.4349C25.7051 24.4279 23.2483 26.8628 20.2285 26.8628ZM20.2285 17.4688C18.0219 17.4688 16.2268 19.248 16.2268 21.4349C16.2268 23.6219 18.022 25.4011 20.2285 25.4011C22.4351 25.4011 24.2302 23.6219 24.2302 21.4349C24.2302 19.248 22.4351 17.4688 20.2285 17.4688Z" fill="white"/>
</g>
</g>
</g>
</g>
<defs>
<filter id="filter0_d_915_2" x="-979" y="-9" width="1033" height="1213" filterUnits="userSpaceOnUse" color-interpolation-filters="sRGB">
<feFlood flood-opacity="0" result="BackgroundImageFix"/>
<feColorMatrix in="SourceAlpha" type="matrix" values="0 0 0 0 0 0 0 0 0 0 0 0 0 0 0 0 0 0 127 0" result="hardAlpha"/>
<feOffset dy="4"/>
<feGaussianBlur stdDeviation="2"/>
<feComposite in2="hardAlpha" operator="out"/>
<feColorMatrix type="matrix" values="0 0 0 0 0 0 0 0 0 0 0 0 0 0 0 0 0 0 0.25 0"/>
<feBlend mode="normal" in2="BackgroundImageFix" result="effect1_dropShadow_915_2"/>
<feBlend mode="normal" in="SourceGraphic" in2="effect1_dropShadow_915_2" result="shape"/>
</filter>
<filter id="filter1_d_915_2" x="-988.002" y="-24" width="1053" height="89.8721" filterUnits="userSpaceOnUse" color-interpolation-filters="sRGB">
<feFlood flood-opacity="0" result="BackgroundImageFix"/>
<feColorMatrix in="SourceAlpha" type="matrix" values="0 0 0 0 0 0 0 0 0 0 0 0 0 0 0 0 0 0 127 0" result="hardAlpha"/>
<feOffset/>
<feGaussianBlur stdDeviation="7.5"/>
<feColorMatrix type="matrix" values="0 0 0 0 0 0 0 0 0 0 0 0 0 0 0 0 0 0 0.15 0"/>
<feBlend mode="normal" in2="BackgroundImageFix" result="effect1_dropShadow_915_2"/>
<feBlend mode="normal" in="SourceGraphic" in2="effect1_dropShadow_915_2" result="shape"/>
</filter>
<filter id="filter2_d_915_2" x="-262.719" y="31" width="337.719" height="158" filterUnits="userSpaceOnUse" color-interpolation-filters="sRGB">
<feFlood flood-opacity="0" result="BackgroundImageFix"/>
<feColorMatrix in="SourceAlpha" type="matrix" values="0 0 0 0 0 0 0 0 0 0 0 0 0 0 0 0 0 0 127 0" result="hardAlpha"/>
<feOffset/>
<feGaussianBlur stdDeviation="12.5"/>
<feColorMatrix type="matrix" values="0 0 0 0 0 0 0 0 0 0 0 0 0 0 0 0 0 0 0.15 0"/>
<feBlend mode="normal" in2="BackgroundImageFix" result="effect1_dropShadow_915_2"/>
<feBlend mode="normal" in="SourceGraphic" in2="effect1_dropShadow_915_2" result="shape"/>
</filter>
<clipPath id="clip0_915_2">
<rect width="1500" height="1974" fill="white" transform="translate(-1211 -611)"/>
</clipPath>
<clipPath id="clip1_915_2">
<rect width="25.1706" height="24.9467" fill="white" transform="translate(7.64331 8.96167)"/>
</clipPath>
</defs>
</svg>
