<svg width="51" height="45" viewBox="0 0 51 45" fill="none" xmlns="http://www.w3.org/2000/svg">
<circle cx="31" cy="20" r="19.5" fill="white" stroke="#767272"/>
<g clip-path="url(#clip0_915_437)">
<path d="M40.8846 14.1786C40.7701 14.0145 40.5859 13.9131 40.3858 13.9045L27.9796 13.3698C27.6236 13.3542 27.3262 13.629 27.3109 13.9833C27.2958 14.3375 27.5702 14.6367 27.9244 14.6519L39.4907 15.1505L37.2165 22.2461H27.0962L25.2678 12.2907C25.2276 12.0725 25.0778 11.8904 24.8712 11.8094L21.8766 10.6329C21.5466 10.5037 21.1742 10.6658 21.0445 10.9955C20.9151 11.3253 21.0772 11.6979 21.4071 11.8276L24.0697 12.8736L25.9304 23.0038C25.9865 23.3083 26.2519 23.5295 26.5617 23.5295H26.8703L26.1655 25.4872C26.1065 25.6512 26.1308 25.8333 26.2312 25.9757C26.3315 26.1183 26.4945 26.203 26.6686 26.203H27.1629C26.8566 26.5439 26.6686 26.9928 26.6686 27.4864C26.6686 28.548 27.5324 29.4116 28.5937 29.4116C29.655 29.4116 30.5188 28.548 30.5188 27.4864C30.5188 26.9929 30.3308 26.5439 30.0245 26.203H34.2217C33.9153 26.5439 33.7273 26.9928 33.7273 27.4864C33.7273 28.548 34.5908 29.4116 35.6524 29.4116C36.714 29.4116 37.5775 28.548 37.5775 27.4864C37.5775 26.9929 37.3895 26.5439 37.0833 26.203H37.6845C37.9799 26.203 38.2192 25.9636 38.2192 25.6683C38.2192 25.3729 37.9798 25.1335 37.6845 25.1335H27.4295L28.0069 23.5293H37.6844C37.9635 23.5293 38.2104 23.349 38.2954 23.0835L40.9692 14.7413C41.0306 14.5509 40.9991 14.3428 40.8846 14.1786ZM28.5937 28.3423C28.1219 28.3423 27.7381 27.9585 27.7381 27.4867C27.7381 27.0148 28.1219 26.631 28.5937 26.631C29.0656 26.631 29.4493 27.0148 29.4493 27.4867C29.4493 27.9585 29.0656 28.3423 28.5937 28.3423ZM35.6524 28.3423C35.1805 28.3423 34.7968 27.9585 34.7968 27.4867C34.7968 27.0148 35.1805 26.631 35.6524 26.631C36.1243 26.631 36.508 27.0148 36.508 27.4867C36.508 27.9585 36.1243 28.3423 35.6524 28.3423Z" fill="#767272"/>
</g>
<circle cx="12.5" cy="32.5" r="12.5" fill="#0E49B5"/>
<defs>
<clipPath id="clip0_915_437">
<rect width="20" height="20" fill="white" transform="translate(21 10)"/>
</clipPath>
</defs>
</svg>
