<svg width="25" height="25" viewBox="0 0 25 25" fill="none" xmlns="http://www.w3.org/2000/svg">
<path fill-rule="evenodd" clip-rule="evenodd" d="M12.5 25C19.4036 25 25 19.4036 25 12.5C25 5.59644 19.4036 0 12.5 0C5.59644 0 0 5.59644 0 12.5C0 19.4036 5.59644 25 12.5 25ZM12.7393 11.1484H11.6865V12.6934H12.7324C13.8262 12.6934 14.373 13.1901 14.373 14.1836C14.373 14.5938 14.2386 14.9242 13.9697 15.1748C13.7054 15.4209 13.3385 15.5439 12.8691 15.5439C12.459 15.5439 12.1126 15.4255 11.8301 15.1885C11.5521 14.9515 11.4131 14.6462 11.4131 14.2725H9.4375C9.4375 15.1338 9.75195 15.8265 10.3809 16.3506C11.0143 16.8747 11.8278 17.1367 12.8213 17.1367C13.8831 17.1367 14.7354 16.8701 15.3779 16.3369C16.0251 15.8037 16.3486 15.0951 16.3486 14.2109C16.3486 13.6641 16.2096 13.1901 15.9316 12.7891C15.6582 12.388 15.2412 12.0872 14.6807 11.8867C15.1318 11.6816 15.4964 11.3877 15.7744 11.0049C16.0524 10.6221 16.1914 10.2028 16.1914 9.74707C16.1914 8.86296 15.8929 8.17025 15.2959 7.66895C14.6989 7.16309 13.874 6.91016 12.8213 6.91016C12.2152 6.91016 11.6592 7.02637 11.1533 7.25879C10.652 7.49121 10.2601 7.81478 9.97754 8.22949C9.69954 8.63965 9.56055 9.10449 9.56055 9.62402H11.5361C11.5361 9.29134 11.6637 9.02246 11.9189 8.81738C12.1742 8.60775 12.4909 8.50293 12.8691 8.50293C13.2884 8.50293 13.6165 8.61458 13.8535 8.83789C14.0951 9.0612 14.2158 9.37337 14.2158 9.77441C14.2158 10.1891 14.0951 10.5218 13.8535 10.7725C13.612 11.0231 13.2406 11.1484 12.7393 11.1484Z" fill="#0E49B5"/>
</svg>
