<svg width="40" height="40" viewBox="0 0 40 40" fill="none" xmlns="http://www.w3.org/2000/svg">
<path fill-rule="evenodd" clip-rule="evenodd" d="M29.3858 13.9045C29.5859 13.9131 29.7701 14.0145 29.8846 14.1786C29.9991 14.3428 30.0306 14.5509 29.9692 14.7413L27.2954 23.0835C27.2104 23.349 26.9635 23.5293 26.6844 23.5293H17.0069L16.4295 25.1335H26.6845C26.9798 25.1335 27.2192 25.3729 27.2192 25.6683C27.2192 25.9636 26.9799 26.203 26.6845 26.203H26.0833C26.3895 26.5439 26.5775 26.9929 26.5775 27.4864C26.5775 28.548 25.714 29.4116 24.6524 29.4116C23.5908 29.4116 22.7273 28.548 22.7273 27.4864C22.7273 26.9928 22.9153 26.5439 23.2217 26.203H19.0245C19.3308 26.5439 19.5188 26.9929 19.5188 27.4864C19.5188 28.548 18.655 29.4116 17.5937 29.4116C16.5324 29.4116 15.6686 28.548 15.6686 27.4864C15.6686 26.9928 15.8566 26.5439 16.1629 26.203H15.6686C15.4945 26.203 15.3315 26.1183 15.2312 25.9757C15.1308 25.8333 15.1065 25.6512 15.1655 25.4872L15.8703 23.5295H15.5617C15.2519 23.5295 14.9865 23.3083 14.9304 23.0038L13.0697 12.8736L10.4071 11.8276C10.0772 11.6979 9.91515 11.3253 10.0445 10.9955C10.1742 10.6658 10.5466 10.5037 10.8766 10.6329L13.8712 11.8094C14.0778 11.8904 14.2276 12.0725 14.2678 12.2907L16.0962 22.2461H26.2165L28.4907 15.1505L16.9244 14.6519C16.5702 14.6367 16.2958 14.3375 16.3109 13.9833C16.3262 13.629 16.6236 13.3542 16.9796 13.3698L29.3858 13.9045ZM16.7381 27.4867C16.7381 27.9585 17.1219 28.3423 17.5937 28.3423C18.0656 28.3423 18.4493 27.9585 18.4493 27.4867C18.4493 27.0148 18.0656 26.631 17.5937 26.631C17.1219 26.631 16.7381 27.0148 16.7381 27.4867ZM23.7968 27.4867C23.7968 27.9585 24.1805 28.3423 24.6524 28.3423C25.1243 28.3423 25.508 27.9585 25.508 27.4867C25.508 27.0148 25.1243 26.631 24.6524 26.631C24.1805 26.631 23.7968 27.0148 23.7968 27.4867Z" fill="#767272"/>
<path fill-rule="evenodd" clip-rule="evenodd" d="M40 20C40 31.0457 31.0457 40 20 40C8.9543 40 0 31.0457 0 20C0 8.9543 8.9543 0 20 0C31.0457 0 40 8.9543 40 20ZM39 20C39 30.4934 30.4934 39 20 39C9.50659 39 1 30.4934 1 20C1 9.50659 9.50659 1 20 1C30.4934 1 39 9.50659 39 20Z" fill="#767272"/>
</svg>
