<svg width="41" height="39" viewBox="0 0 41 39" fill="none" xmlns="http://www.w3.org/2000/svg">
<ellipse cx="20.7035" cy="19.5288" rx="20.1561" ry="19.0192" fill="#0E49B5"/>
<g clip-path="url(#clip0_915_379)">
<path d="M20.9902 31.8913H19.409C18.1301 31.8913 17.0895 30.9095 17.0895 29.7027V29.1979C16.5458 29.034 16.0176 28.8271 15.5101 28.5793L15.131 28.937C14.2128 29.8045 12.742 29.7791 11.8504 28.9367L10.7328 27.8822C9.83974 27.0404 9.81405 25.653 10.7331 24.7867L11.1119 24.4293C10.8493 23.9504 10.6301 23.452 10.4563 22.9389H9.92143C8.64258 22.9389 7.60205 21.9571 7.60205 20.7503V19.2582C7.60205 18.0515 8.64258 17.0697 9.92148 17.0697H10.4564C10.6301 16.5566 10.8494 16.0582 11.112 15.5793L10.7329 15.2216C9.81435 14.3558 9.83969 12.9683 10.7332 12.1261L11.8509 11.0715C12.7445 10.2272 14.2149 10.2061 15.1314 11.0718L15.5101 11.4292C16.0176 11.1814 16.5459 10.9745 17.0896 10.8106V10.3058C17.0896 9.09907 18.1301 8.11728 19.409 8.11728H20.9903C22.2692 8.11728 23.3096 9.09907 23.3096 10.3058V10.8106C23.8533 10.9745 24.3816 11.1814 24.8891 11.4292L25.2682 11.0715C26.1864 10.2041 27.6572 10.2295 28.5487 11.0718L29.6663 12.1264C30.5594 12.9681 30.5851 14.3555 29.666 15.2218L29.2872 15.5793C29.5499 16.0582 29.7691 16.5565 29.9428 17.0697H30.4777C31.7566 17.0697 32.7972 18.0515 32.7972 19.2582V20.7503C32.7972 21.9571 31.7566 22.9389 30.4777 22.9389H29.9428C29.7691 23.452 29.5499 23.9504 29.2872 24.4293L29.6663 24.787C30.5849 25.6528 30.5595 27.0403 29.666 27.8825L28.5483 28.9371C27.6548 29.7814 26.1843 29.8025 25.2679 28.9368L24.8891 28.5794C24.3816 28.8272 23.8533 29.0341 23.3096 29.198V29.7028C23.3096 30.9095 22.2692 31.8913 20.9902 31.8913ZM15.7569 27.1165C16.4619 27.5099 17.2207 27.8072 18.0122 27.9999C18.3381 28.0793 18.5659 28.3567 18.5659 28.6743V29.7027C18.5659 30.1414 18.9441 30.4983 19.409 30.4983H20.9903C21.4551 30.4983 21.8334 30.1414 21.8334 29.7027V28.6743C21.8334 28.3567 22.0611 28.0793 22.3871 27.9999C23.1786 27.8072 23.9374 27.5099 24.6424 27.1165C24.9325 26.9546 25.3018 26.9987 25.5401 27.2235L26.3121 27.952C26.645 28.2665 27.1795 28.2592 27.5042 27.9524L28.6226 26.8971C28.9465 26.5919 28.9573 26.0874 28.6229 25.7723L27.8505 25.0435C27.6122 24.8186 27.5656 24.4701 27.7371 24.1964C28.154 23.5312 28.469 22.8152 28.6732 22.0683C28.7574 21.7608 29.0514 21.5459 29.388 21.5459H30.4778C30.9427 21.5459 31.3209 21.189 31.3209 20.7504V19.2583C31.3209 18.8196 30.9427 18.4627 30.4778 18.4627H29.388C29.0513 18.4627 28.7574 18.2478 28.6732 17.9403C28.469 17.1934 28.154 16.4774 27.7371 15.8122C27.5656 15.5385 27.6122 15.19 27.8505 14.9652L28.6226 14.2367C28.9563 13.9221 28.9476 13.4179 28.6229 13.1118L27.5046 12.0566C27.1804 11.7503 26.6458 11.7414 26.3125 12.0563L25.5402 12.7851C25.3019 13.01 24.9325 13.054 24.6425 12.8921C23.9374 12.4987 23.1786 12.2015 22.3872 12.0087C22.0612 11.9294 21.8335 11.652 21.8335 11.3343V10.3058C21.8335 9.86717 21.4552 9.51029 20.9903 9.51029H19.4091C18.9442 9.51029 18.5659 9.86717 18.5659 10.3058V11.3342C18.5659 11.6519 18.3382 11.9293 18.0122 12.0086C17.2207 12.2014 16.4619 12.4986 15.7569 12.892C15.4668 13.0539 15.0975 13.0098 14.8592 12.785L14.0872 12.0565C13.7543 11.7421 13.2198 11.7494 12.8951 12.0562L11.7768 13.1114C11.4529 13.4167 11.442 13.9211 11.7765 14.2363L12.5488 14.9651C12.7871 15.1899 12.8337 15.5384 12.6622 15.8121C12.2453 16.4773 11.9303 17.1933 11.7261 17.9402C11.6419 18.2478 11.348 18.4626 11.0114 18.4626H9.92148C9.4566 18.4627 9.07833 18.8196 9.07833 19.2582V20.7503C9.07833 21.189 9.4566 21.5459 9.92148 21.5459H11.0113C11.348 21.5459 11.6419 21.7608 11.726 22.0683C11.9303 22.8152 12.2453 23.5312 12.6622 24.1964C12.8337 24.4701 12.787 24.8186 12.5488 25.0434L11.7767 25.7719C11.443 26.0865 11.4517 26.5907 11.7764 26.8968L12.8947 27.952C13.2188 28.2583 13.7534 28.2672 14.0868 27.9523L14.8591 27.2235C15.0347 27.0579 15.3999 26.9173 15.7569 27.1165Z" fill="white"/>
<path d="M20.1997 25.177C17.1769 25.177 14.7178 22.8565 14.7178 20.0043C14.7178 17.152 17.1769 14.8316 20.1997 14.8316C23.2225 14.8316 25.6816 17.152 25.6816 20.0043C25.6816 22.8565 23.2225 25.177 20.1997 25.177ZM20.1997 16.2246C17.9909 16.2246 16.1941 17.9201 16.1941 20.0043C16.1941 22.0884 17.991 23.784 20.1997 23.784C22.4084 23.784 24.2053 22.0884 24.2053 20.0043C24.2053 17.9201 22.4084 16.2246 20.1997 16.2246Z" fill="white"/>
</g>
<defs>
<clipPath id="clip0_915_379">
<rect width="25.1951" height="23.774" fill="white" transform="translate(7.60205 8.11728)"/>
</clipPath>
</defs>
</svg>
